<svg width="20" height="20" viewBox="0 0 20 20" fill="none" xmlns="http://www.w3.org/2000/svg">
<g opacity="0.5" clip-path="url(#clip0)">
<path d="M10 0.75C15.1088 0.75 19.252 4.89226 19.252 10.002C19.252 15.1094 15.1091 19.25 10 19.25C4.89202 19.25 0.75 15.1096 0.75 10.002C0.75 4.89212 4.89231 0.75 10 0.75Z" stroke="white" stroke-width="1.5"/>
<path fill-rule="evenodd" clip-rule="evenodd" d="M13.0029 10.002C12.4509 10.002 12.0029 9.10598 12.0029 8.00198C12.0029 6.89598 12.4509 6.00098 13.0029 6.00098C13.5549 6.00098 14.0029 6.89598 14.0029 8.00198C14.0029 9.10598 13.5549 10.002 13.0029 10.002ZM7.00191 10.002C6.44991 10.002 6.00391 9.10598 6.00391 8.00198C6.00391 6.89598 6.44991 6.00098 7.00191 6.00098C7.55391 6.00098 8.00391 6.89598 8.00391 8.00198C8.00391 9.10598 7.55391 10.002 7.00191 10.002Z" fill="white"/>
<path d="M14.0029 13.001C14.0029 13.001 12.9889 15 10.0019 15C7.01591 15 6.00391 13.001 6.00391 13.001" stroke="white" stroke-width="1.5" stroke-linecap="round"/>
</g>
<defs>
<clipPath id="clip0">
<rect width="20" height="20" fill="white"/>
</clipPath>
</defs>
</svg>
