<svg width="14" height="14" viewBox="0 0 14 14" fill="none" xmlns="http://www.w3.org/2000/svg">
<path d="M7 14C10.866 14 14 10.866 14 7C14 3.13401 10.866 0 7 0C3.13401 0 0 3.13401 0 7C0 10.866 3.13401 14 7 14Z" fill="#DD8A26"/>
<path d="M10.3684 8.49849C10.3793 7.70005 10.0293 6.97817 9.17617 6.67192C9.77773 6.38755 10.1277 5.79692 10.1387 5.07505C10.1605 4.23286 9.69023 3.57661 9.01211 3.31411C8.69492 3.18286 8.35586 3.1063 8.00586 3.1063L8.02773 1.95786C7.52461 1.94692 7.25117 1.93599 7.25117 1.93599C7.25117 1.93599 7.25117 2.3188 7.2293 3.07349L6.45273 3.06255L6.47461 1.92505C5.96055 1.90317 5.69805 1.91411 5.69805 1.91411C5.69805 1.91411 5.69805 2.29692 5.67617 3.05161L4.15586 3.04067C4.15586 3.74067 4.12305 4.09067 4.12305 4.09067C4.27617 4.10161 4.4293 4.11255 4.59336 4.10161C4.82305 4.11255 4.99805 4.29849 4.99805 4.52817L4.93242 9.07817C4.92148 9.30786 4.73555 9.48286 4.50586 9.48286L4.04648 9.47192C4.04648 10.1719 4.01367 10.5219 4.01367 10.5219C4.01367 10.5219 4.5168 10.5329 5.53398 10.5657L5.51211 11.7032C6.01523 11.7141 6.28867 11.725 6.28867 11.725C6.28867 11.725 6.28867 11.3422 6.31055 10.5876L7.10898 10.5985L7.08711 11.736C7.59023 11.7469 7.86367 11.7579 7.86367 11.7579C7.86367 11.7579 7.86367 11.375 7.88555 10.6204C8.20273 10.6313 8.51992 10.5985 8.82617 10.5219C9.71211 10.2485 10.3355 9.43911 10.3684 8.49849ZM6.47461 4.14536L7.64492 4.1563C7.86367 4.1563 8.08242 4.18911 8.29023 4.27661C8.58555 4.44067 8.72773 4.77974 8.7168 5.14067C8.69492 5.74224 8.33398 6.13599 7.77617 6.11411L6.45273 6.0813L6.47461 4.14536ZM8.30117 9.41724C8.12617 9.48286 7.95117 9.51568 7.76523 9.4938L6.36523 9.46099L6.40898 7.2188L7.86367 7.26255C8.5418 7.26255 8.94648 7.73286 8.91367 8.38911C8.91367 8.84849 8.68398 9.26411 8.30117 9.41724Z" fill="white"/>
</svg>
