<svg width="14" height="14" viewBox="0 0 14 14" fill="none" xmlns="http://www.w3.org/2000/svg">
<path d="M7 14C10.866 14 14 10.866 14 7C14 3.13401 10.866 0 7 0C3.13401 0 0 3.13401 0 7C0 10.866 3.13401 14 7 14Z" fill="#4D69E9"/>
<path d="M7.48087 4.96567C7.13087 5.16255 7.01056 5.60005 7.20744 5.95005C7.40431 6.30005 7.84181 6.42036 8.19181 6.22349C8.54181 6.02661 8.66212 5.58911 8.46525 5.23911C8.26837 4.88911 7.83087 4.75786 7.48087 4.96567ZM6.79181 3.72974C6.55119 3.87192 6.46369 4.17817 6.60587 4.42974C6.74806 4.67036 7.05431 4.75786 7.30587 4.61567C7.55744 4.47349 7.634 4.16724 7.49181 3.91567C7.34962 3.67505 7.03244 3.59849 6.79181 3.72974ZM6.79181 9.42817C6.55119 9.57036 6.46369 9.87661 6.60587 10.1282C6.74806 10.3688 7.05431 10.4563 7.30587 10.3141C7.5465 10.1719 7.634 9.86567 7.49181 9.61411C7.34962 9.37349 7.03244 9.29692 6.79181 9.42817ZM9.24181 5.14067C9.00119 5.28286 8.91369 5.58911 9.05587 5.84067C9.19806 6.0813 9.50431 6.1688 9.75587 6.02661C10.0074 5.88442 10.084 5.57817 9.94181 5.32661C9.79962 5.08599 9.49337 5.00942 9.24181 5.14067ZM4.28712 7.99536C4.0465 8.13755 3.959 8.4438 4.10119 8.69536C4.24337 8.93599 4.54962 9.02349 4.80119 8.8813C5.04181 8.73911 5.12931 8.43286 4.98712 8.1813C4.834 7.94067 4.52775 7.85317 4.28712 7.99536ZM4.24337 5.14067C4.00275 5.28286 3.91525 5.58911 4.05744 5.84067C4.19962 6.09224 4.50587 6.1688 4.75744 6.02661C4.99806 5.88442 5.08556 5.57817 4.94337 5.32661C4.80119 5.08599 4.49494 5.00942 4.24337 5.14067ZM9.24181 7.96255C9.00119 8.10474 8.91369 8.41099 9.05587 8.66255C9.19806 8.90317 9.50431 8.99067 9.75587 8.84849C9.9965 8.7063 10.084 8.40005 9.94181 8.14849C9.79962 7.90786 9.49337 7.82036 9.24181 7.96255ZM10.5434 6.66099C10.3465 6.77036 10.2809 7.02192 10.3902 7.2188C10.4996 7.41567 10.7512 7.4813 10.9481 7.37192C11.1449 7.26255 11.2106 7.01099 11.1012 6.81411C10.9809 6.61724 10.7293 6.55161 10.5434 6.66099ZM3.06212 6.66099C2.86525 6.77036 2.79962 7.02192 2.909 7.2188C3.01837 7.41567 3.26994 7.4813 3.46681 7.37192C3.66369 7.26255 3.71837 7.00005 3.609 6.81411C3.49962 6.61724 3.259 6.55161 3.06212 6.66099ZM8.509 3.78442C8.509 4.00317 8.684 4.18911 8.90275 4.20005C9.1215 4.21099 9.30744 4.02505 9.31837 3.8063C9.31837 3.58755 9.14337 3.40161 8.92462 3.39067C8.69494 3.39067 8.509 3.56567 8.509 3.78442ZM4.68087 10.2157C4.68087 10.4344 4.85587 10.6204 5.07462 10.6313C5.29337 10.6313 5.47931 10.4563 5.49025 10.2375C5.49025 10.0188 5.31525 9.83286 5.0965 9.82192C4.87775 9.81099 4.69181 9.99692 4.68087 10.2157ZM4.91056 4.13442C5.10744 4.2438 5.34806 4.17817 5.46837 3.9813C5.57775 3.78442 5.51212 3.5438 5.31525 3.42349C5.11837 3.31411 4.87775 3.37974 4.75744 3.57661C4.64806 3.77349 4.71369 4.02505 4.91056 4.13442ZM8.684 10.5875C8.88087 10.6969 9.1215 10.6313 9.24181 10.4344C9.35119 10.2375 9.28556 9.99692 9.08869 9.87661C8.89181 9.76724 8.65119 9.83286 8.53087 10.0297C8.4215 10.2266 8.48712 10.4782 8.684 10.5875ZM8.31212 6.40942C7.96212 6.6063 7.84181 7.0438 8.03869 7.3938C8.23556 7.7438 8.67306 7.86411 9.02306 7.66724C9.37306 7.47036 9.49337 7.03286 9.2965 6.68286C9.09962 6.33286 8.65119 6.21255 8.31212 6.40942ZM7.48087 7.85317C7.13087 8.05005 7.01056 8.48755 7.20744 8.83755C7.40431 9.18755 7.84181 9.30786 8.19181 9.11099C8.54181 8.91411 8.66212 8.47661 8.46525 8.12661C8.26837 7.77661 7.83087 7.6563 7.48087 7.85317ZM6.51837 4.96567C6.86837 5.16255 6.98869 5.60005 6.79181 5.95005C6.59494 6.30005 6.15744 6.42036 5.80744 6.22349C5.45744 6.02661 5.33712 5.58911 5.534 5.23911C5.73087 4.88911 6.16837 4.75786 6.51837 4.96567ZM5.68712 6.40942C6.03712 6.6063 6.15744 7.0438 5.96056 7.3938C5.76369 7.7438 5.32619 7.86411 4.97619 7.66724C4.62619 7.47036 4.50587 7.03286 4.70275 6.68286C4.89962 6.33286 5.34806 6.21255 5.68712 6.40942ZM6.51837 7.85317C6.86837 8.05005 6.98869 8.48755 6.79181 8.83755C6.59494 9.18755 6.15744 9.30786 5.80744 9.11099C5.45744 8.91411 5.33712 8.47661 5.534 8.12661C5.73087 7.77661 6.16837 7.6563 6.51837 7.85317ZM7.31681 2.46099C7.31681 2.63599 7.17462 2.77817 6.99962 2.77817C6.82462 2.77817 6.68244 2.63599 6.68244 2.46099C6.68244 2.28599 6.82462 2.1438 6.99962 2.1438C7.16369 2.1438 7.31681 2.28599 7.31681 2.46099ZM7.31681 11.5391C7.31681 11.7141 7.17462 11.8563 6.99962 11.8563C6.82462 11.8563 6.68244 11.7141 6.68244 11.5391C6.68244 11.3641 6.82462 11.2219 6.99962 11.2219C7.16369 11.2219 7.31681 11.3641 7.31681 11.5391ZM3.20431 4.47349C3.35744 4.56099 3.41212 4.75786 3.32462 4.91099C3.23712 5.06411 3.04025 5.1188 2.88712 5.0313C2.734 4.9438 2.67931 4.74692 2.76681 4.5938C2.85431 4.44067 3.05119 4.38599 3.20431 4.47349ZM11.0902 8.9688C11.2434 9.0563 11.2981 9.25317 11.2106 9.4063C11.1231 9.55942 10.9262 9.61411 10.7731 9.52661C10.6199 9.43911 10.5652 9.24224 10.6527 9.08911C10.7402 8.93599 10.9371 8.8813 11.0902 8.9688ZM2.88712 8.9688C3.04025 8.8813 3.23712 8.93599 3.32462 9.08911C3.41212 9.24224 3.35744 9.43911 3.20431 9.52661C3.05119 9.61411 2.85431 9.55942 2.76681 9.4063C2.67931 9.25317 2.734 9.0563 2.88712 8.9688ZM10.7731 4.47349C10.9262 4.38599 11.1231 4.44067 11.2106 4.5938C11.2981 4.74692 11.2434 4.9438 11.0902 5.0313C10.9371 5.1188 10.7402 5.06411 10.6527 4.91099C10.5652 4.75786 10.6199 4.56099 10.7731 4.47349ZM4.70275 2.6688C4.70275 2.81099 4.58244 2.9313 4.44025 2.9313C4.29806 2.9313 4.17775 2.81099 4.17775 2.6688C4.17775 2.52661 4.29806 2.4063 4.44025 2.4063C4.58244 2.4063 4.70275 2.51567 4.70275 2.6688ZM9.8215 11.3422C9.8215 11.4844 9.70119 11.6047 9.559 11.6047C9.41681 11.6047 9.2965 11.4844 9.2965 11.3422C9.2965 11.2 9.41681 11.0797 9.559 11.0797C9.70119 11.0797 9.8215 11.2 9.8215 11.3422ZM9.66837 2.88755C9.53712 2.95317 9.384 2.90942 9.30744 2.78911C9.23087 2.6688 9.28556 2.50474 9.40587 2.42817C9.53712 2.36255 9.69025 2.4063 9.76681 2.52661C9.84337 2.65786 9.79962 2.82192 9.66837 2.88755ZM4.58244 11.5829C4.45119 11.6485 4.29806 11.6047 4.2215 11.4844C4.15587 11.3532 4.19962 11.2 4.31994 11.1235C4.45119 11.0579 4.60431 11.1016 4.68087 11.2219C4.75744 11.3532 4.70275 11.5063 4.58244 11.5829ZM11.8996 7.2188C11.7793 7.14224 11.7356 6.98911 11.8012 6.85786C11.8777 6.73755 12.0309 6.6938 12.1621 6.75942C12.2934 6.82505 12.3262 6.98911 12.2606 7.12036C12.184 7.25161 12.0309 7.28442 11.8996 7.2188ZM1.82619 7.24067C1.70587 7.16411 1.66212 7.01099 1.72775 6.87974C1.80431 6.75942 1.95744 6.71567 2.08869 6.7813C2.209 6.85786 2.25275 7.01099 2.18712 7.14224C2.11056 7.27349 1.95744 7.31724 1.82619 7.24067Z" fill="white"/>
</svg>
